<?xml version="1.0" encoding="UTF-8"?>
<svg id="Capa_1" xmlns="http://www.w3.org/2000/svg" version="1.1" viewBox="0 0 551.2 122.2">
  <!-- Generator: Adobe Illustrator 29.1.0, SVG Export Plug-In . SVG Version: 2.1.0 Build 142)  -->
  <defs>
    <style>
      .st0 {
        isolation: isolate;
      }

      .st1 {
        fill: #0071ff;
      }

      .st2 {
        mix-blend-mode: multiply;
      }

      .st3 {
        fill: #0050ee;
      }

      .st4 {
        fill: #fff;
      }

      .st5 {
        fill: #1e3c86;
      }
    </style>
  </defs>
  <g class="st0">
    <g id="Layer_2">
      <g id="Layer_1-2">
        <path class="st3" d="M124,26.9h5.8c3.6,0,6.5,2.9,6.5,6.5v12.6h21.3v-19.1h6.7c3.1,0,5.5,2.5,5.5,5.5v47.4h0c-6.8,0-12.3-5.5-12.3-12.3v-6.8h-21.3v19.1h0c-6.7,0-12.2-5.5-12.2-12.2V26.9h0Z"/>
        <path class="st3" d="M179.6,73.8c-3.2-3-4.8-7.1-4.8-12.3v-20.7h11.7v20.2c0,2.2.5,4,1.5,5.3,1,1.4,2.4,2.1,4.4,2.1s3.4-.7,4.4-2.1c1-1.4,1.5-3.2,1.5-5.3v-20.2h11.7v20.7c0,5.2-1.6,9.3-4.8,12.3-3.2,3-7.4,4.5-12.8,4.5s-9.6-1.5-12.8-4.5Z"/>
        <path class="st3" d="M243.2,63.8l7.9,5.9c-1.9,2.7-4.2,4.7-6.9,6.2s-5.8,2.3-9,2.3-7.5-.8-10.6-2.3-5.6-3.7-7.4-6.6-2.7-6.3-2.7-10.3.9-6.6,2.6-9.6c1.7-2.9,4.1-5.3,7-7,2.9-1.7,6.1-2.6,9.6-2.6,6.2,0,11,1.9,14.2,5.7s4.9,8.8,4.9,15h-26.6c.2,2.5,1.1,4.4,2.6,5.6,1.6,1.2,3.7,1.8,6.3,1.8s5.9-1.4,8-4.3h0ZM226.9,54.3h14.4c-.4-1.6-1.2-2.8-2.6-3.9-1.4-1-2.9-1.5-4.5-1.5-3.8,0-6.2,1.8-7.3,5.4h0Z"/>
        <path class="st3" d="M266.5,75.7c-2.9-1.7-5.3-4-7-6.9-1.7-2.9-2.6-6.1-2.6-9.6s.9-6.6,2.6-9.6c1.7-2.9,4-5.3,7-7s6.1-2.6,9.6-2.6,6.5.8,9.4,2.4c2.9,1.6,5.1,3.8,6.9,6.6l-8.7,6c-.8-1.4-1.8-2.5-3.1-3.3-1.3-.8-2.8-1.2-4.4-1.2-2.4,0-4.4.8-6.1,2.5-1.7,1.7-2.5,3.7-2.5,6s.8,4.4,2.5,6.1c1.7,1.7,3.7,2.5,6.1,2.5s3.1-.4,4.4-1.2,2.3-1.9,3.1-3.3l8.7,6.1c-1.7,2.8-4,4.9-6.9,6.6s-6,2.4-9.4,2.4-6.7-.9-9.6-2.6Z"/>
        <path class="st3" d="M295.3,26.9h7.1c2.5,0,4.6,2.1,4.6,4.6v13.2c3.3-3.1,7-4.7,11-4.7s8.8,1.4,11.1,4.3c2.3,2.9,3.5,7.3,3.5,13.2v19.9h-11.7v-19.9c0-2.6-.4-4.5-1.3-5.8-.9-1.3-2.4-1.9-4.5-1.9s-4.2.9-5.8,2.7-2.3,4-2.3,6.6v18.3h-11.7V26.9h0Z"/>
        <path class="st3" d="M342.2,73.8c-3.2-3-4.8-7.1-4.8-12.3v-20.7h11.7v20.2c0,2.2.5,4,1.5,5.3,1,1.4,2.5,2.1,4.4,2.1s3.4-.7,4.4-2.1,1.5-3.2,1.5-5.3v-20.2h11.7v20.7c0,5.2-1.6,9.3-4.8,12.3-3.2,3-7.4,4.5-12.8,4.5s-9.6-1.5-12.8-4.5Z"/>
        <path class="st3" d="M377.6,40.8h11.7v4c2.1-3.2,5-4.8,8.7-4.8s2.4.3,3.4.8v10.6h-.4c-1.5-.7-2.9-1.1-4.5-1.1-2.2,0-3.9.8-5.3,2.5s-2,4.2-2,7.5v17.2h-11.7v-36.7h0Z"/>
        <path class="st3" d="M483.1,42.6c2.8,1.7,4.9,4,6.5,7,1.6,2.9,2.3,6.1,2.3,9.6s-.8,6.7-2.3,9.6c-1.6,2.9-3.7,5.2-6.5,6.9-2.8,1.7-5.9,2.6-9.4,2.6s-4.7-.4-6.8-1.3c-2.1-.9-3.7-2.3-5-4.2l-.7,4.8h-10.9V26.9h7.6c2.3,0,4.1,1.8,4.1,4.1v14.5c1.2-1.9,2.8-3.3,4.9-4.2,2.1-.9,4.3-1.3,6.8-1.3,3.5,0,6.6.9,9.4,2.6ZM477.7,65.6c1.8-1.8,2.6-3.9,2.6-6.5s-.9-4.7-2.6-6.5c-1.8-1.8-3.9-2.7-6.5-2.7s-4.7.9-6.5,2.7c-1.8,1.8-2.6,3.9-2.6,6.5s.9,4.7,2.6,6.5c1.8,1.8,3.9,2.7,6.5,2.7s4.7-.9,6.5-2.7Z"/>
        <path class="st3" d="M536.4,44.4v33h-10.9l-.7-4.8c-1.2,1.9-2.9,3.3-5,4.2-2.1.9-4.3,1.3-6.8,1.3-3.5,0-6.6-.9-9.4-2.6s-4.9-4-6.5-6.9c-1.6-2.9-2.3-6.1-2.3-9.6s.8-6.7,2.3-9.6,3.7-5.2,6.5-7,5.9-2.6,9.4-2.6,4.7.4,6.8,1.3c2.1.9,3.7,2.3,4.9,4.2v-4.8h8c2,0,3.7,1.6,3.7,3.7h0ZM522,65.6c1.8-1.8,2.7-3.9,2.7-6.5s-.9-4.7-2.7-6.5c-1.8-1.8-3.9-2.7-6.5-2.7s-4.7.9-6.5,2.7c-1.8,1.8-2.6,3.9-2.6,6.5s.9,4.7,2.6,6.5c1.8,1.8,3.9,2.7,6.5,2.7s4.7-.9,6.5-2.7Z"/>
        <path class="st3" d="M444.7,44.4v33h-10.9l-.7-4.8c-1.2,1.9-2.9,3.3-5,4.2-2.1.9-4.3,1.3-6.8,1.3-3.5,0-6.6-.9-9.4-2.6s-4.9-4-6.5-6.9c-1.6-2.9-2.3-6.1-2.3-9.6s.8-6.7,2.3-9.6,3.7-5.2,6.5-7,5.9-2.6,9.4-2.6,4.7.4,6.8,1.3c2.1.9,3.7,2.3,4.9,4.2v-4.8h8c2,0,3.7,1.6,3.7,3.7h0ZM430.3,65.6c1.8-1.8,2.6-3.9,2.6-6.5s-.9-4.7-2.6-6.5c-1.8-1.8-3.9-2.7-6.5-2.7s-4.7.9-6.5,2.7c-1.8,1.8-2.6,3.9-2.6,6.5s.9,4.7,2.6,6.5c1.8,1.8,3.9,2.7,6.5,2.7s4.7-.9,6.5-2.7Z"/>
        <circle class="st3" cx="546" cy="73" r="5.2"/>
        <g class="st2">
          <g class="st0">
            <g class="st0">
              <path class="st3" d="M372.2,98.9c0,4.9-2.7,8.4-9,8.4h-8.4v6h-3.6v-22.9h12c6.3,0,9,3.5,9,8.5ZM362.8,104.2c3.7,0,5.9-1.4,5.9-5.3s-2.2-5.3-5.9-5.3h-7.9v10.6h7.9Z"/>
              <path class="st3" d="M393.6,96.3v17h-3.3v-2.6c-.1,0,.2-.9.2-.9-1.1,2.3-3.2,4-6.9,4s-7.3-2.9-7.3-7.7v-9.8h3.5v9.1c0,3.6,1.8,5.4,5,5.4s5.5-1.7,5.5-5.4v-9.1h3.5Z"/>
            </g>
            <g class="st0">
              <path class="st3" d="M398.9,106.1c.4,3.1,2.4,5,6.1,5s3.8-.7,4.7-2.4h3.3c-1.1,3.1-4.1,5.1-8.3,5.1-6,0-9.3-4-9.3-9s3.2-9,9.2-9,9.4,3.7,9,10.3h-14.7ZM398.9,103.6h11.4c-.5-3.6-2.5-5.2-5.6-5.2s-5.4,1.9-5.8,5.2Z"/>
            </g>
            <g class="st0">
              <path class="st3" d="M430.9,90.1h3.5v23.2h-3.4v-3c-1.4,2.2-3.8,3.5-6.7,3.5-5.2,0-8.6-3.9-8.6-9s3.4-9,8.6-9,5.7,1.5,7.2,4.4l-.6-1.5v-8.6ZM430.9,104.8c0-3.4-2.3-6-6-6s-6,2.5-6,6,2.2,6,6,6,6-2.5,6-6Z"/>
              <path class="st3" d="M441.3,106.1c.4,3.1,2.4,5,6.1,5s3.8-.7,4.7-2.4h3.3c-1.1,3.1-4.1,5.1-8.3,5.1-6,0-9.3-4-9.3-9s3.2-9,9.2-9,9.4,3.7,9,10.3h-14.7ZM441.3,103.6h11.4c-.5-3.6-2.5-5.2-5.6-5.2s-5.4,1.9-5.8,5.2Z"/>
              <path class="st3" d="M502,103.6v9.7h-3.5v-9.1c0-3.1-1.1-5.4-4.7-5.4s-5.1,2.2-5.1,5.5v9h-3.5v-9c0-3.2-1.2-5.5-4.7-5.5s-5.1,2.2-5.1,5.5v9h-3.5v-17h3.4v2.6c0,0-.2.9-.2.9,1.1-2.3,3.1-4,6.6-4s5.4,1.5,6.4,4c1.1-2.4,3.2-4,6.9-4s7,3.1,7,7.8Z"/>
              <path class="st3" d="M505.5,108.5c0-3.1,1.7-5,6-5h7.4v-1.8c0-2.2-1-3.1-4.6-3.1s-4.5.9-4.6,2.4h-3.1c0-4,3.2-5.1,7.8-5.1s8.1,1.9,8.1,5.4v12.1h-3l-.3-2.6h-.1c-1.4,2-4.4,3-7.4,3s-6.1-1.9-6.1-5.3ZM512.8,111.1c3.3,0,6.1-2,6.1-4.2v-1.1h-6.9c-1.9,0-3,.8-3,2.5s1.1,2.7,3.6,2.7h.3ZM513.4,94.1l2.7-5.4h3.3l-2.7,5.4h-3.3Z"/>
              <path class="st3" d="M525.8,108.5h3.2c.2,1.9,1.7,2.6,4.9,2.6s4.7-.6,4.7-2.6-.9-2.1-3.1-2.3l-4-.4c-3.8-.4-5.5-2-5.5-4.8s2.6-5.2,8-5.2,7.5.8,7.6,5.4h-3.1c-.2-1.8-1.3-2.7-4.6-2.7s-4.4.8-4.4,2.6.9,2.1,3.2,2.4l4,.4c3.8.4,5.4,1.8,5.4,4.6,0,3.8-2.8,5.5-8.2,5.5s-7.8-.8-8-5.3Z"/>
            </g>
          </g>
        </g>
        <path class="st3" d="M2.4,49c.5,0,.9,0,1.4,0,.4,0,.9,0,1.3,0h.2c.6,0,1.2,0,1.8,0,.2,0,.3,0,.4,0,.8,0,1.6,0,2.5,0h.5c.6,0,1.3.1,2,.2h.6c.8.1,1.6.2,2.3.3.2,0,.4,0,.6,0h.2c.6.1,1.2.2,1.8.3l2.3.4,19-17.5c14.3-13.2,32.2-20.5,50.4-20.5s1.5,0,2.2,0h.7c.3,0,.6,0,.9,0v-2.8C93.5,4.3,89.2,0,84,0H9.5C4.3,0,0,4.3,0,9.5v39.6h.7c.6,0,1.1-.1,1.6-.1Z"/>
        <path class="st5" d="M92.4,15.2h-.7c-.7,0-1.4,0-2.1,0-17.4,0-34.6,7-48.4,19.7l-17.4,16h.3c.5.2.9.3,1.3.4l1,.3c.4.1.9.2,1.3.3l1.4.4c.3,0,.6.2.9.3l2.5.8c.3,0,.5.2.8.3.4.1.8.3,1.2.4.3.1.7.2,1,.4.4.2.8.3,1.2.5l3.2,1.4c.4.2.8.4,1.2.5h.2c.2.2.5.3.7.5l2.1,1.1c.4.2.8.4,1.2.6l.9.5c.4.2.8.5,1.2.7l.9.5c.4.2.8.5,1.2.7l.3.2c.2.1.4.2.6.4.3.2.6.4,1,.6l1,.7c.4.3.9.6,1.3.9l.6.4c.7.5,1.3.9,1.9,1.4l32.4,25h.2c3-6.1,4.6-13.1,4.6-20.1V15.2h0c-.3,0-.7,0-1,0h0Z"/>
        <path class="st1" d="M42.6,60.8c-1.1-.6-2.3-1.2-3.7-1.8l-.5-.2c-.4-.2-.7-.3-1.1-.5,0,0-.2,0-.3-.1h-.2c-.8-.4-1.5-.7-2.3-1l-.9-.3c-.6-.2-1.2-.5-1.8-.7l-1-.3-.8-.3c-.3-.1-.6-.2-1-.3-.7-.2-1.4-.4-2-.6l-.8-.2c-.6-.2-1.1-.3-1.7-.4-.4-.1-.8-.2-1.1-.3-.3,0-.7-.2-1-.2l-1.1-.2c-.2,0-.5-.1-.8-.2-.8-.1-1.5-.3-2.2-.4h-.7c-.6-.2-1.3-.3-2-.4-.1,0-.3,0-.4,0-.8,0-1.5-.2-2.3-.2h-.7c-.6-.1-1.3-.2-1.9-.2h-.4c-.8,0-1.6,0-2.4-.1h-2.1c-.5,0-1,0-1.5,0-.4,0-.8,0-1.3,0-.5,0-1.1,0-1.6,0-.3,0-.6,0-.8,0H0v19.6c0,3.6.5,7.2,1.4,10.6,1.2,4.7,3.1,9.2,5.7,13.4,1,1.6,2.1,3.2,3.3,4.7,8.9,11,22.2,17.3,36.3,17.3s31-8.2,39.6-22c.4-.6.7-1.2,1.1-1.8l-33-25.5c-3.7-2.9-7.7-5.4-11.9-7.6h0Z"/>
        <path class="st4" d="M92.5,12.2h-.7c-.7,0-1.5,0-2.2,0-18.2,0-36,7.3-50.4,20.5l-19,17.5-2.3-.4c-.6,0-1.2-.2-1.8-.2h-.2c-.2,0-.4,0-.6,0-.8,0-1.6-.2-2.3-.2h-.6c-.7,0-1.3-.1-2-.2h-.5c-.8,0-1.6,0-2.5-.1h-2.3c-.4,0-.9,0-1.3,0-.5,0-.9,0-1.3,0-.5,0-1,0-1.6,0h-.7v3h0c.2,0,.5,0,.8,0,.5,0,1.1,0,1.6,0,.4,0,.9,0,1.3,0,.5,0,1,0,1.5,0h2.1c.8,0,1.6,0,2.4,0h.4c.6,0,1.3.1,1.9.2h.7c.8.1,1.5.2,2.3.3.1,0,.2,0,.4,0,.6,0,1.3.2,2,.3h.7c.7.2,1.5.4,2.2.5.2,0,.5,0,.8.2l1.1.2c.3,0,.7.1,1,.2.4,0,.7.2,1.1.3.6.1,1.1.3,1.7.4l.8.2c.7.2,1.4.4,2,.6.3,0,.6.2,1,.3l.8.3,1,.3c.6.2,1.2.4,1.8.7l.9.3c.8.3,1.5.6,2.3.9h.2c0,0,.2.1.3.2.4.2.7.3,1.1.5l.5.2c1.4.7,2.6,1.2,3.7,1.8,4.2,2.2,8.2,4.7,11.9,7.6l33,25.5,1.4-2.7h-.2c0-.1-32.4-25.1-32.4-25.1-.6-.5-1.3-1-1.9-1.4l-.6-.4c-.4-.3-.9-.6-1.3-.9l-1-.7c-.3-.2-.6-.4-1-.6-.2-.1-.4-.2-.6-.4l-.3-.2c-.4-.2-.8-.5-1.2-.7l-.9-.5c-.4-.2-.8-.5-1.2-.7l-.9-.5c-.4-.2-.8-.4-1.2-.6l-2.1-1.1c-.2-.1-.5-.2-.7-.3h-.2c-.4-.3-.8-.5-1.2-.7l-3.2-1.4c-.4-.2-.8-.3-1.2-.5-.3-.1-.7-.3-1-.4-.4-.2-.8-.3-1.2-.4-.3,0-.5-.2-.8-.3l-2.5-.8c-.3,0-.6-.2-.9-.3l-1.4-.4c-.4-.1-.9-.2-1.3-.3l-1-.3c-.4,0-.8-.2-1.3-.3h-.3c0,0,17.4-16.1,17.4-16.1,13.8-12.7,31-19.7,48.4-19.7s1.4,0,2.1,0h.7c.3,0,.7,0,1,0h0v-3c-.3,0-.6,0-.9,0h0Z"/>
        <path class="st4" d="M88.8,91.2c-.1.2,0,0,0,0h0Z"/>
      </g>
    </g>
  </g>
</svg>