<svg xmlns="http://www.w3.org/2000/svg" width="156" height="54.349" viewBox="0 0 156 54.349">
  <g id="Grupo_819" data-name="Grupo 819" transform="translate(-78.271 -422.559)">
    <g id="Grupo_810" data-name="Grupo 810" transform="translate(145.973 432.16)">
      <path id="Trazado_551" data-name="Trazado 551" d="M201.566,456.509h-6.62l3.29-9.749h.081Zm2.152,6.092,1.99,5.321H214.2L202.662,437.3h-8.691l-11.779,30.624h8.448l2.113-5.321Z" transform="translate(-182.192 -437.297)" fill="#022346"/>
      <rect id="Rectángulo_716" data-name="Rectángulo 716" width="7.961" height="30.625" transform="translate(33.867)" fill="#022346"/>
      <path id="Trazado_552" data-name="Trazado 552" d="M268.294,444.039V437.3H250.871v30.625h17.424v-6.742h-9.463V455.9h8.977v-6.742h-8.977v-5.118Z" transform="translate(-206.128 -437.297)" fill="#022346"/>
      <g id="Grupo_809" data-name="Grupo 809" transform="translate(64.986 0)">
        <path id="Trazado_553" data-name="Trazado 553" d="M289.9,443.715h1.34c3.087,0,5.728.041,5.728,3.9,0,3.737-2.844,3.737-5.728,3.737H289.9Zm-7.96,24.207h7.96V457.768h4.509c6.945,0,10.844-3.168,10.844-10.4,0-7.027-4.549-10.073-11.128-10.073H281.944Z" transform="translate(-281.944 -437.297)" fill="#022346"/>
      </g>
    </g>
    <g id="Grupo_811" data-name="Grupo 811" transform="translate(78.271 422.559)">
      <rect id="Rectángulo_717" data-name="Rectángulo 717" width="17.849" height="31.011" transform="translate(0 9.215)" fill="#b40000"/>
      <rect id="Rectángulo_718" data-name="Rectángulo 718" width="17.637" height="31.011" transform="translate(46.924 9.215)" fill="#b40000"/>
      <path id="Trazado_554" data-name="Trazado 554" d="M113.15,431.774l9.663-9.215,9.663,9.215v31.011H113.15Z" transform="translate(-90.427 -422.559)" fill="#b40000"/>
    </g>
    <g id="Grupo_818" data-name="Grupo 818" transform="translate(78.271 469.203)">
      <g id="Grupo_812" data-name="Grupo 812" transform="translate(0 0.001)">
        <path id="Trazado_555" data-name="Trazado 555" d="M93.643,500.43H89.89A1.488,1.488,0,0,0,91.63,502.1a3.377,3.377,0,0,0,1.027-.163,2.641,2.641,0,0,0,.713-.309v.943a3.338,3.338,0,0,1-.854.267,6.562,6.562,0,0,1-1.4.141,2.6,2.6,0,0,1-2.1-.718,3.438,3.438,0,0,1-.6-2.227,2.662,2.662,0,0,1,.7-1.975,2.619,2.619,0,0,1,1.929-.7,2.528,2.528,0,0,1,1.9.707,2.705,2.705,0,0,1,.687,1.965Zm-1.415-.776a1.818,1.818,0,0,0-.32-1.064,1.009,1.009,0,0,0-.854-.393q-1.133,0-1.164,1.457Z" transform="translate(-81.809 -495.274)" fill="#022346"/>
        <path id="Trazado_556" data-name="Trazado 556" d="M82.243,496.558a3.6,3.6,0,0,0-1.614-.314,2.241,2.241,0,0,0-1.7.691,2.756,2.756,0,0,0-.661,1.98,3.191,3.191,0,0,0,.661,2.253,2.831,2.831,0,0,0,2.128.692,7.721,7.721,0,0,0,2.662-.451v-7.252l-1.478.429Zm0,4.171a2.955,2.955,0,0,1-1.173.22,1.055,1.055,0,0,1-.965-.487,3.018,3.018,0,0,1-.3-1.547q0-1.75,1.279-1.75a1.917,1.917,0,0,1,.419.047,4.619,4.619,0,0,1,.446.126,2.655,2.655,0,0,0,.3.089Z" transform="translate(-78.271 -494.158)" fill="#022346"/>
      </g>
      <g id="Grupo_813" data-name="Grupo 813" transform="translate(16.159 0)">
        <path id="Trazado_557" data-name="Trazado 557" d="M112.271,502.621a5.7,5.7,0,0,1-1.038.236,11.117,11.117,0,0,1-1.76.12q-2.506,0-2.506-1.75a1.437,1.437,0,0,1,.75-1.294,3.544,3.544,0,0,1,1.87-.455h1.248v-.336q0-.912-1.509-.912a5.4,5.4,0,0,0-1.918.43v-.9a1.828,1.828,0,0,0,.21-.058c.126-.038.255-.073.388-.1s.292-.066.477-.1.386-.07.6-.1a5.774,5.774,0,0,1,.639-.036,3.419,3.419,0,0,1,1.939.429,1.612,1.612,0,0,1,.608,1.414Zm-1.436-.639v-1.751h-.765a2.672,2.672,0,0,0-1.227.22.785.785,0,0,0-.408.754.831.831,0,0,0,.314.7,1.342,1.342,0,0,0,.838.241A3.656,3.656,0,0,0,110.835,501.982Z" transform="translate(-104.431 -495.274)" fill="#022346"/>
        <path id="Trazado_558" data-name="Trazado 558" d="M103.074,501.735h1.467v-7.577l-1.467.426Z" transform="translate(-103.074 -494.158)" fill="#022346"/>
      </g>
      <g id="Grupo_814" data-name="Grupo 814" transform="translate(28.324 0.001)">
        <path id="Trazado_559" data-name="Trazado 559" d="M127.523,499.419a2.619,2.619,0,0,1-.728,1.986,3.8,3.8,0,0,1-4.376.01,2.727,2.727,0,0,1-.67-1.986v-4.58h1.519v4.36a2.473,2.473,0,0,0,.3,1.383,1.207,1.207,0,0,0,1.069.44,1.17,1.17,0,0,0,1.038-.456,2.445,2.445,0,0,0,.314-1.378V494.85h1.53Z" transform="translate(-121.748 -494.399)" fill="#022346"/>
        <path id="Trazado_560" data-name="Trazado 560" d="M138.084,502.851h-1.478v-3.228a1.582,1.582,0,0,0-.257-1.011,1.025,1.025,0,0,0-.833-.309,3.512,3.512,0,0,0-.66.068,1.923,1.923,0,0,0-.493.141v4.339H132.9V497.8a8.353,8.353,0,0,1,2.652-.44,3.366,3.366,0,0,1,1.881.44,1.484,1.484,0,0,1,.655,1.321Z" transform="translate(-125.633 -495.274)" fill="#022346"/>
        <path id="Trazado_561" data-name="Trazado 561" d="M144.472,501.831H143v-5.366h1.467Zm-1.488-6.33h1.509v-1.068l-1.509.438Z" transform="translate(-129.149 -494.253)" fill="#022346"/>
        <path id="Trazado_562" data-name="Trazado 562" d="M152.237,497.552l-1.845,5.366h-1.96l-1.845-5.366h1.53l1.331,4.4,1.31-4.4Z" transform="translate(-130.405 -495.341)" fill="#022346"/>
        <path id="Trazado_563" data-name="Trazado 563" d="M161.186,500.43h-3.752a1.487,1.487,0,0,0,1.739,1.666,3.377,3.377,0,0,0,1.027-.163,2.651,2.651,0,0,0,.713-.309v.943a3.348,3.348,0,0,1-.854.267,6.562,6.562,0,0,1-1.4.141,2.6,2.6,0,0,1-2.1-.718,3.442,3.442,0,0,1-.6-2.227,2.66,2.66,0,0,1,.7-1.975,2.618,2.618,0,0,1,1.928-.7,2.526,2.526,0,0,1,1.9.707,2.7,2.7,0,0,1,.687,1.965Zm-1.415-.776a1.822,1.822,0,0,0-.319-1.064,1.01,1.01,0,0,0-.855-.393q-1.132,0-1.163,1.457Z" transform="translate(-133.674 -495.274)" fill="#022346"/>
        <path id="Trazado_564" data-name="Trazado 564" d="M169.065,498.355a2.627,2.627,0,0,0-.577-.063,3.034,3.034,0,0,0-.414.031c-.15.021-.274.042-.372.063s-.2.046-.319.073-.177.042-.184.042v4.349h-1.467v-5.062a8.923,8.923,0,0,1,2.547-.429,3.049,3.049,0,0,1,.786.063Z" transform="translate(-137.078 -495.274)" fill="#022346"/>
        <path id="Trazado_565" data-name="Trazado 565" d="M176.22,501.237a1.51,1.51,0,0,1-.614,1.279,2.959,2.959,0,0,1-1.8.461,6.372,6.372,0,0,1-1.4-.141,3.288,3.288,0,0,1-.833-.267v-.933a3.956,3.956,0,0,0,1.771.461,2.207,2.207,0,0,0,1.007-.183.538.538,0,0,0,.345-.466.548.548,0,0,0-.324-.457,3.78,3.78,0,0,0-.786-.34q-.461-.147-.922-.33a2.15,2.15,0,0,1-.786-.529,1.157,1.157,0,0,1-.325-.818,1.348,1.348,0,0,1,.65-1.184,2.985,2.985,0,0,1,1.677-.429,4.976,4.976,0,0,1,2.117.4v.922a3.882,3.882,0,0,0-1.678-.429q-1.278,0-1.278.6,0,.282.5.519a6.96,6.96,0,0,0,1.09.4,3.218,3.218,0,0,1,1.09.551A1.129,1.129,0,0,1,176.22,501.237Z" transform="translate(-139.107 -495.274)" fill="#022346"/>
        <path id="Trazado_566" data-name="Trazado 566" d="M181.919,502.918h-1.467v-5.366h1.467Z" transform="translate(-142.208 -495.341)" fill="#022346"/>
        <path id="Trazado_567" data-name="Trazado 567" d="M199.8,502.621a5.7,5.7,0,0,1-1.038.236,11.12,11.12,0,0,1-1.761.12q-2.5,0-2.5-1.75a1.437,1.437,0,0,1,.75-1.294,3.546,3.546,0,0,1,1.87-.455h1.248v-.336q0-.912-1.509-.912a5.4,5.4,0,0,0-1.918.43v-.9a1.83,1.83,0,0,0,.21-.058c.126-.038.255-.073.388-.1s.292-.066.477-.1.386-.07.6-.1a5.776,5.776,0,0,1,.64-.036,3.418,3.418,0,0,1,1.939.429,1.612,1.612,0,0,1,.608,1.414Zm-1.436-.639v-1.751H197.6a2.671,2.671,0,0,0-1.226.22.785.785,0,0,0-.408.754.829.829,0,0,0,.315.7,1.339,1.339,0,0,0,.838.241A3.654,3.654,0,0,0,198.364,501.982Z" transform="translate(-147.103 -495.274)" fill="#022346"/>
        <path id="Trazado_568" data-name="Trazado 568" d="M188.478,496.558a3.607,3.607,0,0,0-1.614-.314,2.243,2.243,0,0,0-1.7.691,2.759,2.759,0,0,0-.66,1.98,3.194,3.194,0,0,0,.66,2.253,2.833,2.833,0,0,0,2.128.692,7.722,7.722,0,0,0,2.663-.451v-7.252l-1.478.429Zm0,4.171a2.955,2.955,0,0,1-1.173.22,1.053,1.053,0,0,1-.965-.487,3.018,3.018,0,0,1-.3-1.547q0-1.75,1.278-1.75a1.918,1.918,0,0,1,.42.047c.14.031.288.074.446.126a2.614,2.614,0,0,0,.3.089Z" transform="translate(-143.621 -494.158)" fill="#022346"/>
        <path id="Trazado_569" data-name="Trazado 569" d="M208.347,496.558a3.609,3.609,0,0,0-1.614-.314,2.243,2.243,0,0,0-1.7.691,2.759,2.759,0,0,0-.661,1.98,3.194,3.194,0,0,0,.661,2.253,2.832,2.832,0,0,0,2.128.692,7.718,7.718,0,0,0,2.662-.451v-7.252l-1.478.429Zm0,4.171a2.959,2.959,0,0,1-1.174.22,1.053,1.053,0,0,1-.964-.487,3.018,3.018,0,0,1-.3-1.547q0-1.75,1.278-1.75a1.918,1.918,0,0,1,.42.047c.139.031.288.074.445.126a2.608,2.608,0,0,0,.3.089Z" transform="translate(-150.545 -494.158)" fill="#022346"/>
        <path id="Trazado_570" data-name="Trazado 570" d="M180.42,495.5h1.509v-1.069l-1.509.438Z" transform="translate(-142.197 -494.253)" fill="#022346"/>
      </g>
      <g id="Grupo_817" data-name="Grupo 817" transform="translate(91.929)">
        <g id="Grupo_815" data-name="Grupo 815" transform="translate(39.912 0)">
          <path id="Trazado_571" data-name="Trazado 571" d="M284.6,498.235a1.849,1.849,0,0,0,1.064-.53,1.6,1.6,0,0,0-.294-2.405,3.692,3.692,0,0,0-1.986-.451h-2.736v7.127h2.882q2.725,0,2.726-1.939a1.747,1.747,0,0,0-.435-1.248A1.931,1.931,0,0,0,284.6,498.235Zm-2.432-2.422h1.111q1.268,0,1.268.986a.857.857,0,0,1-.341.734,1.474,1.474,0,0,1-.9.251h-1.143Zm1.143,5.2h-1.143v-2.285h1.122q1.383,0,1.383,1.153Q284.67,501.012,283.308,501.012Z" transform="translate(-280.645 -494.398)" fill="#022346"/>
          <path id="Trazado_572" data-name="Trazado 572" d="M293.444,497.359a2.618,2.618,0,0,0-1.928.7,2.659,2.659,0,0,0-.7,1.975,3.442,3.442,0,0,0,.6,2.227,2.6,2.6,0,0,0,2.1.719,6.519,6.519,0,0,0,1.4-.142,3.32,3.32,0,0,0,.854-.267v-.943a2.63,2.63,0,0,1-.713.309,3.379,3.379,0,0,1-1.027.163,1.487,1.487,0,0,1-1.74-1.666h3.753v-.4a2.7,2.7,0,0,0-.687-1.965A2.526,2.526,0,0,0,293.444,497.359Zm-1.164,2.3q.032-1.456,1.164-1.457a1.009,1.009,0,0,1,.855.393,1.814,1.814,0,0,1,.319,1.063Z" transform="translate(-284.189 -495.273)" fill="#022346"/>
          <path id="Trazado_573" data-name="Trazado 573" d="M314,497.993a3.092,3.092,0,0,0-2.128-.634q-2.83,0-2.83,2.672a3.345,3.345,0,0,0,.618,2.249,2.865,2.865,0,0,0,2.212.7,3,3,0,0,0,2.138-.661,3.081,3.081,0,0,0,.692-2.285A2.623,2.623,0,0,0,314,497.993Zm-1.137,3.606a1.1,1.1,0,0,1-.99.466,1.121,1.121,0,0,1-1.007-.456,2.994,2.994,0,0,1-.3-1.578,2.3,2.3,0,0,1,.3-1.336,1.424,1.424,0,0,1,2-.005,2.289,2.289,0,0,1,.3,1.341A2.953,2.953,0,0,1,312.861,501.6Z" transform="translate(-290.542 -495.273)" fill="#022346"/>
          <path id="Trazado_574" data-name="Trazado 574" d="M300.579,501.735h1.467v-7.578l-1.467.426Z" transform="translate(-287.592 -494.157)" fill="#022346"/>
          <path id="Trazado_575" data-name="Trazado 575" d="M304.987,501.735h1.467v-7.578l-1.467.426Z" transform="translate(-289.129 -494.157)" fill="#022346"/>
        </g>
        <g id="Grupo_816" data-name="Grupo 816">
          <path id="Trazado_576" data-name="Trazado 576" d="M221.738,494.849l-2.358,7.127h1.551l.558-1.954h2.351l.55,1.954h1.635l-2.337-7.127Zm.027,4.2.906-3.175.894,3.175Z" transform="translate(-219.38 -494.398)" fill="#022346"/>
          <path id="Trazado_577" data-name="Trazado 577" d="M235.384,497.8a3.362,3.362,0,0,0-1.881-.44,8.329,8.329,0,0,0-2.652.44v5.052h1.467v-4.339a1.912,1.912,0,0,1,.493-.141,3.512,3.512,0,0,1,.66-.068,1.025,1.025,0,0,1,.833.309,1.585,1.585,0,0,1,.257,1.012v3.228h1.478V499.12A1.484,1.484,0,0,0,235.384,497.8Z" transform="translate(-223.378 -495.273)" fill="#022346"/>
          <path id="Trazado_578" data-name="Trazado 578" d="M252.187,497.516a7.4,7.4,0,0,0-1.064.273v5.062h1.467V498.5c.007,0,.068-.014.184-.042s.221-.052.32-.073.222-.042.372-.063a3.022,3.022,0,0,1,.414-.031,2.664,2.664,0,0,1,.577.063v-.933a3.081,3.081,0,0,0-.786-.063A7.406,7.406,0,0,0,252.187,497.516Z" transform="translate(-230.443 -495.273)" fill="#022346"/>
          <path id="Trazado_579" data-name="Trazado 579" d="M262.286,494.157h-1.268l-.9,1.446h1.059Z" transform="translate(-233.578 -494.157)" fill="#022346"/>
          <path id="Trazado_580" data-name="Trazado 580" d="M259.691,497.359a2.62,2.62,0,0,0-1.929.7,2.661,2.661,0,0,0-.7,1.975,3.438,3.438,0,0,0,.6,2.227,2.6,2.6,0,0,0,2.1.719,6.511,6.511,0,0,0,1.4-.142,3.3,3.3,0,0,0,.854-.267v-.943a2.615,2.615,0,0,1-.712.309,3.379,3.379,0,0,1-1.027.163,1.487,1.487,0,0,1-1.74-1.666h3.752v-.4a2.705,2.705,0,0,0-.687-1.965A2.528,2.528,0,0,0,259.691,497.359Zm-1.164,2.3q.031-1.456,1.164-1.457a1.007,1.007,0,0,1,.854.393,1.814,1.814,0,0,1,.32,1.063Z" transform="translate(-232.512 -495.273)" fill="#022346"/>
          <path id="Trazado_581" data-name="Trazado 581" d="M270.525,500.32a3.219,3.219,0,0,0-1.09-.551,6.945,6.945,0,0,1-1.091-.4q-.5-.235-.5-.519,0-.6,1.279-.6a3.873,3.873,0,0,1,1.677.429v-.922a4.983,4.983,0,0,0-2.117-.4,2.985,2.985,0,0,0-1.677.43,1.348,1.348,0,0,0-.65,1.184,1.157,1.157,0,0,0,.325.818,2.163,2.163,0,0,0,.786.529q.461.184.922.33a3.725,3.725,0,0,1,.786.341.546.546,0,0,1,.325.455.536.536,0,0,1-.346.466,2.2,2.2,0,0,1-1.006.184,3.962,3.962,0,0,1-1.772-.461v.933a3.285,3.285,0,0,0,.834.267,6.332,6.332,0,0,0,1.4.142,2.964,2.964,0,0,0,1.8-.461,1.512,1.512,0,0,0,.613-1.279A1.13,1.13,0,0,0,270.525,500.32Z" transform="translate(-235.753 -495.273)" fill="#022346"/>
          <path id="Trazado_582" data-name="Trazado 582" d="M244.589,496.558a3.6,3.6,0,0,0-1.614-.315,2.242,2.242,0,0,0-1.7.692,2.756,2.756,0,0,0-.661,1.98,3.193,3.193,0,0,0,.661,2.254,2.831,2.831,0,0,0,2.128.692,7.706,7.706,0,0,0,2.662-.451v-7.253l-1.478.43Zm0,4.171a2.955,2.955,0,0,1-1.173.22,1.054,1.054,0,0,1-.965-.487,3.018,3.018,0,0,1-.3-1.547q0-1.75,1.279-1.75a1.913,1.913,0,0,1,.419.047q.21.048.446.126a2.756,2.756,0,0,0,.3.089Z" transform="translate(-226.782 -494.157)" fill="#022346"/>
        </g>
      </g>
    </g>
  </g>
</svg>
